<svg width="668" height="85" viewBox="0 0 668 85" fill="none" xmlns="http://www.w3.org/2000/svg">
<path d="M187.048 82.9469H161.171L142.201 31.4897L123.232 82.9469H97.8408L131.705 1.05237H153.184L187.048 82.9469Z" fill="url(#paint0_linear_102_1918)"/>
<path d="M190.691 70.5885L203.562 55.6127C211.792 62.0077 220.967 65.3807 230.627 65.3807C236.833 65.3807 240.179 63.303 240.179 59.8221V59.5792C240.179 56.2063 237.427 54.3445 226.094 51.8081C208.339 47.8685 194.604 42.9845 194.604 26.2548V26.0119C194.604 10.9282 206.881 0 226.93 0C241.123 0 252.213 3.7237 261.28 10.7933L249.704 26.7135C242.068 21.4787 233.73 18.6994 226.336 18.6994C220.724 18.6994 217.999 21.02 217.999 23.9342V24.1771C217.999 27.9008 220.859 29.5198 232.435 32.0832C251.647 36.1577 263.573 42.175 263.573 57.3936V57.6364C263.573 74.2582 250.109 84.1072 229.817 84.1072C215.03 84.0532 200.945 79.52 190.691 70.5885Z" fill="url(#paint1_linear_102_1918)"/>
<path d="M0.053968 1.05237H24.6628L44.7114 32.7578L64.7601 1.05237H89.3689V82.9469H66.1902V35.9149L44.6844 67.9711H44.1987L22.8279 36.1577V82.9469H0V1.05237H0.053968Z" fill="url(#paint2_linear_102_1918)"/>
<path d="M265.975 1.45715H291.609L310.389 52.4287L329.17 1.45715H354.318L320.778 82.5421H299.515L265.975 1.45715Z" fill="url(#paint3_linear_102_1918)"/>
<path d="M362.414 1.75403H428.901V20.7503H385.08V32.9468H424.772V50.54H385.08V63.3031H429.494V82.2724H362.414V1.75403Z" fill="url(#paint4_linear_102_1918)"/>
<path d="M441.232 1.75403H480.331C492.959 1.75403 501.702 4.96502 507.26 10.4966C512.117 15.0838 514.6 21.317 514.6 29.2501V29.4929C514.6 41.7973 507.881 49.9733 497.6 54.2097L517.325 82.2724H490.881L474.233 57.8795H473.99H464.195V82.2724H441.286V1.75403H441.232ZM479.252 40.3942C487.05 40.3942 491.529 36.7245 491.529 30.8421V30.6263C491.529 24.2852 486.807 21.0741 479.117 21.0741H464.114V40.3942H479.252Z" fill="url(#paint5_linear_102_1918)"/>
<path d="M519.916 70.3187L532.679 55.4779C540.828 61.8189 549.922 65.1379 559.474 65.1379C565.626 65.1379 568.918 63.0602 568.918 59.6333V59.3905C568.918 56.0445 566.192 54.2096 554.994 51.6732C537.401 47.7606 523.829 42.9306 523.829 26.3628V26.147C523.829 11.1982 535.998 0.377808 555.831 0.377808C569.889 0.377808 580.871 4.0476 589.857 11.0633L578.389 26.8215C570.834 21.6407 562.577 18.8884 555.237 18.8884C549.679 18.8884 546.98 21.1821 546.98 24.0693V24.2851C546.98 27.9548 549.814 29.5738 561.282 32.1103C580.305 36.1308 592.096 42.1211 592.096 57.2048V57.4207C592.096 73.8805 578.74 83.6485 558.664 83.6485C544.039 83.6485 530.089 79.1692 519.916 70.3187Z" fill="url(#paint6_linear_102_1918)"/>
<path d="M600.92 1.75403H667.407V20.7503H623.586V32.9468H663.278V50.54H623.586V63.3031H668.001V82.2724H600.92V1.75403Z" fill="url(#paint7_linear_102_1918)"/>
<defs>
<linearGradient id="paint0_linear_102_1918" x1="-7.84867" y1="42.0064" x2="678.765" y2="42.0064" gradientUnits="userSpaceOnUse">
<stop stop-color="#4394D0"/>
<stop offset="1" stop-color="#2A2A68"/>
</linearGradient>
<linearGradient id="paint1_linear_102_1918" x1="-7.84785" y1="42.0064" x2="678.766" y2="42.0064" gradientUnits="userSpaceOnUse">
<stop stop-color="#4394D0"/>
<stop offset="1" stop-color="#2A2A68"/>
</linearGradient>
<linearGradient id="paint2_linear_102_1918" x1="-7.84784" y1="42.0064" x2="678.766" y2="42.0064" gradientUnits="userSpaceOnUse">
<stop stop-color="#4394D0"/>
<stop offset="1" stop-color="#2A2A68"/>
</linearGradient>
<linearGradient id="paint3_linear_102_1918" x1="-7.84825" y1="42.0064" x2="678.765" y2="42.0064" gradientUnits="userSpaceOnUse">
<stop stop-color="#4394D0"/>
<stop offset="1" stop-color="#2A2A68"/>
</linearGradient>
<linearGradient id="paint4_linear_102_1918" x1="-7.84773" y1="42.0065" x2="678.766" y2="42.0065" gradientUnits="userSpaceOnUse">
<stop stop-color="#4394D0"/>
<stop offset="1" stop-color="#2A2A68"/>
</linearGradient>
<linearGradient id="paint5_linear_102_1918" x1="-7.84774" y1="42.0065" x2="678.766" y2="42.0065" gradientUnits="userSpaceOnUse">
<stop stop-color="#4394D0"/>
<stop offset="1" stop-color="#2A2A68"/>
</linearGradient>
<linearGradient id="paint6_linear_102_1918" x1="-7.84716" y1="42.0064" x2="678.766" y2="42.0064" gradientUnits="userSpaceOnUse">
<stop stop-color="#4394D0"/>
<stop offset="1" stop-color="#2A2A68"/>
</linearGradient>
<linearGradient id="paint7_linear_102_1918" x1="-7.84692" y1="42.0065" x2="678.766" y2="42.0065" gradientUnits="userSpaceOnUse">
<stop stop-color="#4394D0"/>
<stop offset="1" stop-color="#2A2A68"/>
</linearGradient>
</defs>
</svg>
